<svg width="1919" height="415" viewBox="0 0 1919 415" fill="none" xmlns="http://www.w3.org/2000/svg">
<path d="M897.77 334.07H940.207V286.137C944.176 287.053 948.756 287.358 953.641 287.358C972.875 287.358 989.056 280.947 1002.18 262.629V284H1047.68V127.378H1002.18V211.337C1002.18 233.014 993.331 249.806 972.264 249.806C951.198 249.806 943.26 233.319 943.26 211.642V127.378H897.77V334.07Z" fill="#FF8126"/>
<path d="M1138.76 246.447V70.2858H1091.43V284H1235.54V246.447H1138.76Z" fill="#FF8126"/>
<path d="M1333.39 160.962C1348.65 160.962 1369.11 168.594 1372.16 188.745H1293.7C1299.5 167.678 1318.73 160.962 1333.39 160.962ZM1384.07 231.487C1373.08 242.173 1356.9 250.111 1340.72 250.111C1311.41 250.111 1293.7 235.762 1292.78 216.222H1418.87C1418.87 153.94 1377.05 124.02 1334 124.02C1283.62 124.02 1247.6 160.351 1247.6 206.452C1247.6 251.027 1279.35 287.358 1337.36 287.358C1358.42 287.358 1388.34 280.947 1410.33 256.522L1384.07 231.487Z" fill="#FF8126"/>
<path d="M1481.83 205.231C1481.83 181.112 1495.88 160.962 1520.91 160.962C1545.64 160.962 1563.04 178.364 1563.04 207.673C1563.04 235.762 1544.42 250.416 1522.13 250.416C1496.79 250.416 1481.83 230.571 1481.83 205.231ZM1561.82 127.378V148.749C1551.14 134.4 1532.82 124.02 1511.75 124.02C1462.9 124.02 1436.34 160.962 1436.34 204.926C1436.34 250.722 1465.04 287.358 1512.67 287.358C1535.87 287.358 1550.53 277.283 1561.82 261.102V284H1607.31V127.378H1561.82Z" fill="#FF8126"/>
<path d="M1690.72 127.378H1646.45V284H1691.94V198.82C1691.94 178.059 1709.04 167.984 1726.14 167.984C1730.72 167.984 1738.96 168.594 1745.37 170.121V125.241C1740.49 124.325 1738.96 124.02 1733.77 124.02C1720.34 124.02 1695.61 133.179 1690.72 161.572V127.378Z" fill="#FF8126"/>
<path d="M1768.99 284H1814.48V200.041C1814.48 178.364 1823.34 161.572 1844.4 161.572C1865.47 161.572 1873.41 178.059 1873.41 199.736V284H1918.9V198.82C1918.9 158.825 1906.99 124.02 1863.03 124.02C1843.79 124.02 1827.61 130.431 1814.48 148.749V127.378H1768.99V284Z" fill="#FF8126"/>
<path d="M486.546 170.557V126.918H374.074V290.19H486.546V246.556H421.027V227.671H477.159V190.094H421.027V170.557H486.546Z" fill="#00B4A6"/>
<path d="M733.392 126.918V186.737H685.892V126.918H637.278V290.19H685.892V230.376H733.392V290.19H782V126.918H733.392Z" fill="#00B4A6"/>
<path d="M619.438 170.557V126.918H506.96V290.19H619.438V246.556H553.914V170.557H619.438Z" fill="#00B4A6"/>
<path d="M225.239 126.451L172.554 177.744H296.199V333.298L348.863 281.837V126.451H225.239Z" fill="#00B4A6"/>
<path d="M272.092 347.109C272.103 347.098 272.113 347.093 272.124 347.088L272.092 347.072V201.714H147.548L95.8982 252.272H219.943V317.538L219.749 317.428C204.809 324.241 188.224 328.066 170.736 328.066C105.38 328.066 52.4012 275.087 52.4012 209.731C52.4012 144.375 105.38 91.396 170.736 91.396C186.055 91.396 200.674 94.3378 214.112 99.6383L254 60.6907C229.357 46.8956 200.974 39 170.731 39C76.4349 39 0 115.44 0 209.731C0 304.027 76.4349 380.462 170.731 380.462C205.654 380.462 238.109 369.939 265.158 351.942L272.092 347.109Z" fill="#008BD0"/>
<path d="M348.863 126.451H225.239L172.554 177.744H296.199L348.863 126.451Z" fill="#00A09D"/>
<path d="M272.092 201.714H147.548L95.8982 252.272H219.943L272.092 201.714Z" fill="#0079C1"/>
</svg>
